<svg width="1639" height="319" viewBox="0 0 1639 319" fill="none" xmlns="http://www.w3.org/2000/svg">
<path d="M7.25 315V41.85H0.5L5 -2.14577e-05H50V315H7.25ZM74.4863 315V41.85H67.7363L72.2363 -2.14577e-05H117.236V315H74.4863ZM141.723 315V41.85H134.973L139.473 -2.14577e-05H184.473V315H141.723ZM197.92 41.85V-2.14577e-05H321.67V41.85H281.17V315H238.42V41.85H197.92ZM465.723 -2.14577e-05V135.9H491.373V-2.14577e-05H534.123V315H491.373V177.75H465.723V315H422.973V41.85H416.223L420.723 -2.14577e-05H465.723ZM642.914 175.95V315H600.164V175.95L547.514 -2.14577e-05H590.264L621.764 104.85L652.814 -2.14577e-05H695.564L642.914 175.95ZM826.004 273.15C826.004 285.75 822.104 295.95 814.304 303.75C806.504 311.25 796.304 315 783.704 315H709.004V41.85H702.254L706.754 -2.14577e-05H783.704C796.304 -2.14577e-05 806.504 3.89998 814.304 11.7C822.104 19.2 826.004 29.25 826.004 41.85V273.15ZM781.004 41.85H751.754V273.15H781.004C782.504 273.15 783.254 272.4 783.254 270.9V44.1C783.254 42.6 782.504 41.85 781.004 41.85ZM948.263 273.15L944.663 315H846.113V41.85H839.363L843.863 -2.14577e-05H948.263L943.763 41.85H888.863V136.35H939.263L934.763 178.2H888.863V273.15H948.263ZM959.387 41.85L963.887 -2.14577e-05H1034.99C1047.59 -2.14577e-05 1057.79 3.89998 1065.59 11.7C1073.39 19.2 1077.29 29.25 1077.29 41.85V182.7C1077.29 189.3 1075.94 195.3 1073.24 200.7C1070.54 205.8 1066.94 210.15 1062.44 213.75L1091.24 315H1048.04L1022.39 224.55H1008.89V315H966.137V41.85H959.387ZM1032.29 41.85H1008.89V182.7H1032.29C1033.79 182.7 1034.54 181.95 1034.54 180.45V44.1C1034.54 42.6 1033.79 41.85 1032.29 41.85ZM1142.76 315H1100.01L1124.31 41.85H1116.21L1120.71 -2.14577e-05H1203.06L1230.96 315H1188.21L1183.26 261H1147.71L1142.76 315ZM1151.31 219.15H1179.66L1165.71 62.55L1151.31 219.15ZM1244.26 318.15V41.85H1237.51L1242.01 -2.14577e-05H1313.11C1325.71 -2.14577e-05 1335.91 3.89998 1343.71 11.7C1351.51 19.2 1355.41 29.25 1355.41 41.85V136.35C1355.41 140.55 1354.81 144.6 1353.61 148.5C1360.81 156.3 1364.41 166.2 1364.41 178.2V276.3C1364.41 288.9 1359.61 299.1 1350.01 306.9C1340.71 314.4 1329.76 318.15 1317.16 318.15H1244.26ZM1310.41 41.85H1287.01V136.35H1310.41C1311.91 136.35 1312.66 135.6 1312.66 134.1V44.1C1312.66 42.6 1311.91 41.85 1310.41 41.85ZM1319.41 178.2H1287.01V276.3H1319.41C1320.91 276.3 1321.66 275.55 1321.66 274.05V180.45C1321.66 178.95 1320.91 178.2 1319.41 178.2ZM1420.5 315H1377.75L1402.05 41.85H1393.95L1398.45 -2.14577e-05H1480.8L1508.7 315H1465.95L1461 261H1425.45L1420.5 315ZM1429.05 219.15H1457.4L1443.45 62.55L1429.05 219.15ZM1638.99 273.15C1638.99 285.75 1635.09 295.95 1627.29 303.75C1619.49 311.25 1609.29 315 1596.69 315H1521.99V41.85H1515.24L1519.74 -2.14577e-05H1596.69C1609.29 -2.14577e-05 1619.49 3.89998 1627.29 11.7C1635.09 19.2 1638.99 29.25 1638.99 41.85V273.15ZM1593.99 41.85H1564.74V273.15H1593.99C1595.49 273.15 1596.24 272.4 1596.24 270.9V44.1C1596.24 42.6 1595.49 41.85 1593.99 41.85Z" fill="black"/>
</svg>
